<?xml version="1.0"?>
<svg xmlns:xlink="http://www.w3.org/1999/xlink" xmlns="http://www.w3.org/2000/svg" viewBox="0 0 224 224" version="1.1" width="32px" height="32px"><g style="mix-blend-mode: normal" text-anchor="none" font-size="none" font-weight="none" font-family="none" stroke-dashoffset="0" stroke-dasharray="" stroke-miterlimit="10" stroke-linejoin="miter" stroke-linecap="butt" stroke-width="1" stroke="none" fill-rule="nonzero" fill="none"><path fill="none" d="M0,224v-224h224v224z"/><g fill="#2980b9"><g id="surface1"><path d="M111.125,28l-0.65625,0.21875l-77,17.0625l-5.46875,1.3125v130.8125l5.46875,1.3125l77,17.0625l0.65625,0.21875h14.875v-21h70v-126h-70v-21zM112,42.21875v139.5625l-70,-15.3125v-108.9375zM126,63h56v98h-56v-14h14v-14h-14v-7h14v-14h-14v-7h14v-14h-14v-7h14v-14h-14zM147,70v14h28v-14zM99.09375,77l-15.96875,1.96875l-8.75,18.8125c-0.92968,2.70703 -1.61328,4.75782 -1.96875,6.125h-0.21875c-0.54687,-2.26953 -1.06641,-4.23828 -1.75,-5.90625l-4.375,-16.1875l-14.875,1.75l-0.65625,0.4375l12.46875,28l-14,28l15.09375,1.75l6.125,-17.28125c0.73828,-2.1875 1.33984,-3.96484 1.53125,-5.03125h0.21875c0.41016,2.26953 0.68359,3.96484 1.09375,4.8125l9.40625,20.5625l17.0625,2.1875l-18.59375,-35.21875zM147,91v14h28v-14zM147,112v14h28v-14zM147,133v14h28v-14z"/></g></g></g></svg>
