<?xml version="1.0"?>
<svg xmlns:xlink="http://www.w3.org/1999/xlink" xmlns="http://www.w3.org/2000/svg" viewBox="0 0 224 224" version="1.1" width="32px" height="32px"><g style="mix-blend-mode: normal" text-anchor="none" font-size="none" font-weight="none" font-family="none" stroke-dashoffset="0" stroke-dasharray="" stroke-miterlimit="10" stroke-linejoin="miter" stroke-linecap="butt" stroke-width="1" stroke="none" fill-rule="nonzero" fill="none"><path fill="none" d="M0,224v-224h224v224z"/><g fill="#2980b9"><g id="surface1"><path d="M63,28v49h-14c-11.51172,0 -21,9.48828 -21,21v70h35v28h98v-28h35v-70c0,-11.51172 -9.48828,-21 -21,-21h-14v-49zM77,42h70v35h-70zM49,91h126c3.96484,0 7,3.03516 7,7v56h-21v-28h-98v28h-21v-56c0,-3.96484 3.03516,-7 7,-7zM56,98c-3.85547,0 -7,3.14453 -7,7c0,3.85547 3.14453,7 7,7c3.85547,0 7,-3.14453 7,-7c0,-3.85547 -3.14453,-7 -7,-7zM77,140h70v42h-70z"/></g></g></g></svg>
