<?xml version="1.0"?>
<svg xmlns:xlink="http://www.w3.org/1999/xlink" xmlns="http://www.w3.org/2000/svg" viewBox="0 0 224 224" version="1.1" width="32px" height="32px"><g style="mix-blend-mode: normal" text-anchor="none" font-size="none" font-weight="none" font-family="none" stroke-dashoffset="0" stroke-dasharray="" stroke-miterlimit="10" stroke-linejoin="miter" stroke-linecap="butt" stroke-width="1" stroke="none" fill-rule="nonzero" fill="none"><path fill="none" d="M0,224v-224h224v224z"/><g fill="#2980b9"><g id="surface1"><path d="M111.125,28l-0.65625,0.21875l-77,17.0625l-5.46875,1.3125v130.8125l5.46875,1.3125l77,17.0625l0.65625,0.21875h14.875v-21h70v-126h-70v-21zM112,42.21875v139.5625l-70,-15.3125v-108.9375zM126,63h56v98h-56v-14h49v-14h-49v-7h49v-14h-49v-7h49v-14h-49v-7h49v-14h-49zM105,77l-10.9375,0.875c-0.82031,5.55078 -5.16797,35.49219 -5.25,37.84375l-4.59375,-36.53125l-14.875,2.1875l-5.90625,37.84375l-3.9375,-36.53125l-10.5,1.3125l7,56l13.5625,2.1875l7.65625,-44.84375c0.05469,2.51563 5.30469,37.1875 6.78125,47.25l10.28125,1.75z"/></g></g></g></svg>
